# xmcd
#
# Track frame offsets:
#	182
#	12575
#	27802
#	41640
#	51977
#	66080
#	78447
#	96320
#	105562
#	117995
#	134850
#	151957
#	168327
#	178972
#	188962
#	205307
#	217680
#	235612
#	246690
#	262557
#	273525
#
# Disc length: 3883 seconds
# Revision: 0
# Processed by: cddbd v1.5.2PL0 Copyright (c) Steve Scherf et al.
# Submitted via: dBpowerAMP V12.0
#
DISCID=300f2915
DTITLE=Various Artist - Cream Of Country
DYEAR=1900
DGENRE=Country and Folk
TTITLE0=Shinnery (Yesson) - Hello Road
TTITLE1=Dolly Parton - Country Roads
TTITLE2=Rocking Horse - Don't You Want To Fall In Love
TTITLE3=Laurike Rauch - Ek Loop Die Pad
TTITLE4=Don Williams - Down The Road I Go
TTITLE5=Bobby Bare and Skeeter Davis - In The Misty Moonlight
TTITLE6=Bles Bridges - Gee My Die Veld En Die Sonskyn
TTITLE7=Chet Atkins - Goin' Down The Road
TTITLE8=Glen Campbell - Sunflower
TTITLE9=Anne Murray - Slow Passin' Time
TTITLE10=Anne Murray - Country Side Of Life
TTITLE11=Willie Nelson - Over The Rainbow
TTITLE12=Joanna Field - I Can See Forever Loving You
TTITLE13=Chet Atkins - Walk Right In
TTITLE14=Bobby Angel - Rainbows And Roses
TTITLE15=Dolly Parton - Elusive Butterfly
TTITLE16=Lee Greenwood - Wind Beneath My Wings
TTITLE17=Tanya Tucker - Smell The Flowers
TTITLE18=Alabama - Feels So Right
TTITLE19=Danie Botha - Wys My 'n Plek
TTITLE20=Shinnery - Umhlanga Dawn
EXTD=
EXTT0=
EXTT1=
EXTT2=
EXTT3=
EXTT4=
EXTT5=
EXTT6=
EXTT7=
EXTT8=
EXTT9=
EXTT10=
EXTT11=
EXTT12=
EXTT13=
EXTT14=
EXTT15=
EXTT16=
EXTT17=
EXTT18=
EXTT19=
EXTT20=
PLAYORDER=
